<?xml version="1.0" encoding="utf-8"?>
<!-- Generator: Adobe Illustrator 16.0.3, SVG Export Plug-In . SVG Version: 6.00 Build 0)  -->
<!DOCTYPE svg PUBLIC "-//W3C//DTD SVG 1.1//EN" "http://www.w3.org/Graphics/SVG/1.1/DTD/svg11.dtd">
<svg version="1.1" id="Capa_1" xmlns="http://www.w3.org/2000/svg" xmlns:xlink="http://www.w3.org/1999/xlink" x="0px" y="0px"
	 width="500px" height="500px" viewBox="0 0 500 500" enable-background="new 0 0 500 500" xml:space="preserve">
<g id="Guias" display="none">
</g>
<g id="Capa_2">
	<g id="Heart_Base">
		<path fill="#0E0E0D" d="M250.357,474.811c-0.409-1.863-0.312-3.807-0.189-5.702c0.153-1.895,0.155-3.802,0.239-5.703
			c0.135-3.802,0.263-7.622,0.519-11.42c0.129-1.9,0.189-3.803,0.37-5.702l0.593-5.709l0.297-2.858l0.428-2.85l0.851-5.648
			c0.121-0.941,0.312-1.882,0.521-2.822l0.596-2.821c0.413-1.895,0.764-3.739,1.229-5.679l1.5-5.512
			c0.504-1.837,0.965-3.676,1.613-5.502l1.819-5.495l0.456-1.375l0.113-0.344l0.072-0.212l0.064-0.166l0.258-0.666l1.031-2.662
			l2.063-5.325c0.742-1.77,1.543-3.531,2.313-5.299c0.804-1.768,1.5-3.536,2.395-5.303l2.51-5.131l1.256-2.564l1.377-2.545
			l2.759-5.092c0.243-0.438,0.433-0.818,0.719-1.307l0.726-1.229l1.448-2.461c0.976-1.64,1.913-3.284,2.916-4.918l3.118-4.888
			l1.563-2.444l0.422-0.649l0.406-0.589l0.811-1.175c2.169-3.133,4.273-6.275,6.646-9.371l3.506-4.691l3.563-4.465
			c2.315-2.988,4.913-5.914,7.392-8.871l0.977-1.143l0.958-1.061l1.915-2.117l3.829-4.236l3.834-4.232l2.015-2.207l1.949-2.088
			l0.975-1.043l1.158-1.104l2.078-1.958c1.389-1.305,2.737-2.617,4.271-3.895l4.479-3.848l4.554-3.626
			c1.504-1.233,3.079-2.347,4.623-3.515c1.549-1.158,3.099-2.319,4.679-3.416c12.536-8.991,25.563-16.932,37.555-25.854
			c6.006-4.447,11.804-9.09,17.15-14.146l2.029-1.872l1.928-1.966c1.27-1.325,2.609-2.585,3.82-3.959l3.625-4.125l0.833-0.952
			l0.889-1.118l1.776-2.235l1.777-2.235c0.58-0.743,1.078-1.474,1.622-2.21c1.06-1.479,2.146-2.92,3.187-4.423
			c2.023-3.076,4.104-6.116,5.916-9.313c1.951-3.118,3.56-6.42,5.297-9.646c1.521-3.332,3.183-6.601,4.466-10.026l1.025-2.542
			l0.509-1.272l0.441-1.296l1.769-5.181l0.11-0.323l0.056-0.162c-0.002,0.013,0.083-0.256,0.009-0.013l0.194-0.687l0.388-1.374
			l0.774-2.748l0.388-1.374c0.115-0.447,0.198-0.87,0.301-1.306l0.585-2.596c0.189-0.869,0.404-1.719,0.578-2.603l0.476-2.693
			c0.312-1.796,0.67-3.582,0.865-5.401c0.218-1.813,0.501-3.616,0.669-5.435l0.452-5.461c0.426-7.295,0.395-14.613-0.175-21.874
			c-0.563-7.263-1.801-14.435-3.563-21.409c-1.775-6.967-4.167-13.75-7.423-19.975l-0.575-1.188l-0.662-1.13l-1.322-2.257
			l-0.657-1.13l-0.327-0.566c-0.057-0.093,0.21,0.309,0.049,0.069l-0.103-0.146l-0.202-0.293l-1.624-2.349
			c-0.54-0.769-1.085-1.597-1.622-2.317l-1.581-1.93l-1.566-1.939l-1.784-1.906c-9.501-10.235-21.912-17.663-35.391-22.223
			c-13.496-4.597-28.034-6.403-42.479-6.039c-14.451,0.405-28.929,2.933-42.551,7.712c-13.62,4.752-26.45,11.594-37.143,20.872
			c-2.269,2.068-4.632,4.618-6.585,7.246c-1.995,2.657-3.686,5.48-5.167,8.506c-3.267,6.688-6.011,13.127-7.173,19.482
			l-2.729,14.936l-9.927-10.959l-2.204-2.434l-1.095-1.224c-0.376-0.407-0.725-0.818-1.022-1.241l-1.881-2.516
			c-0.634-0.84-1.257-1.682-1.782-2.523c-2.265-3.367-4.274-6.738-6.2-9.964c-0.96-1.617-1.921-3.243-2.868-4.757l-1.425-2.316
			c-0.48-0.753-0.973-1.453-1.458-2.183l-1.459-2.165l-1.533-1.969l-0.762-0.988l-0.38-0.495c0.02,0.019-0.178-0.218,0.02,0.011
			l-0.117-0.132l-0.235-0.264l-1.88-2.113c-1.283-1.504-2.433-2.573-3.619-3.801l-0.884-0.902l-0.962-0.881l-1.926-1.765
			c-1.278-1.184-2.668-2.218-3.992-3.34c-1.363-1.066-2.786-2.042-4.171-3.074c-1.449-0.928-2.89-1.87-4.353-2.77
			c-1.511-0.807-2.98-1.702-4.517-2.452l-2.319-1.093l-1.159-0.549l-0.145-0.069c-0.167-0.074,0.068,0.023-0.018-0.011l-0.327-0.134
			l-0.655-0.268l-2.616-1.075c-0.864-0.348-1.771-0.748-2.568-1.017c-1.651-0.587-3.263-1.211-4.942-1.78l-5.122-1.634l-5.179-1.427
			l-5.224-1.214c-6.991-1.478-14.078-2.391-21.143-2.622c-7.062-0.23-14.103,0.226-20.932,1.513
			c-3.42,0.623-6.764,1.517-10.045,2.556c-1.609,0.598-3.267,1.089-4.843,1.761l-2.35,1.037l-1.177,0.515l-0.589,0.257l-0.147,0.064
			c-0.142,0.068,0.028-0.023-0.048,0.017l-0.315,0.16l-2.511,1.28L94.8,42.038c-1.514,0.872-3.067,1.767-4.567,2.724
			c-3.018,1.895-5.988,3.904-8.838,6.063c-5.721,4.283-11.085,9.044-15.688,14.208c-2.247,2.577-4.36,5.337-5.93,8.013l-1.423,2.444
			l-0.713,1.221l-0.357,0.61c-0.104,0.196-0.183,0.378-0.275,0.568l-2.181,4.498c-2.811,6.397-4.933,13.219-6.474,20.191
			c-1.58,6.973-2.423,14.157-2.809,21.36c-0.256,3.602-0.201,7.222-0.2,10.837l0.217,5.422c0.071,1.808,0.279,3.604,0.409,5.41
			c0.674,7.2,1.818,14.36,3.559,21.345l1.451,5.186l0.182,0.648l0.091,0.324c-0.091-0.26,0.008,0.024,0.002,0.009l0.057,0.167
			l0.458,1.338l0.914,2.677l0.915,2.676c0.3,0.904,0.658,1.663,0.983,2.502l1.99,4.929c2.972,6.61,6.319,13.068,10.154,19.264
			c3.907,6.146,8.111,12.131,12.771,17.783l0.427,0.538l0.213,0.269c0.056,0.07-0.116-0.131,0.013,0.017l0.117,0.133l0.934,1.062
			l1.868,2.124l1.868,2.124c0.623,0.717,1.25,1.29,1.873,1.942l3.754,3.809l4.025,3.706c5.473,4.84,11.186,9.472,17.229,13.788
			c12.029,8.688,24.897,16.649,37.297,25.615c6.186,4.51,12.212,9.305,17.984,14.422l4.218,3.971l1.053,0.993l0.263,0.248
			l0.132,0.124l0.197,0.199l0.487,0.513l1.95,2.05l3.9,4.099l3.818,4.274l1.907,2.14l0.477,0.534l0.524,0.609l0.915,1.078
			l3.661,4.313l7.404,8.744l3.46,4.477c1.153,1.492,2.317,2.964,3.425,4.548l3.361,4.668l0.839,1.167l0.21,0.291l0.227,0.337
			l0.393,0.588l1.569,2.354c8.43,12.589,16.042,25.975,22.194,39.806l2.219,5.288l1.107,2.643c0.186,0.461,0.366,0.834,0.556,1.365
			l0.484,1.329l1.935,5.317c0.314,0.892,0.664,1.759,0.948,2.671l0.84,2.743l1.675,5.479l0.209,0.684l0.052,0.173l0.054,0.212
			l0.084,0.344l0.336,1.374l0.671,2.748c0.432,1.839,0.93,3.647,1.307,5.512l1.033,5.626l0.508,2.812
			c0.197,0.989,0.254,1.887,0.388,2.835l0.695,5.614c0.27,1.862,0.375,3.767,0.523,5.655l0.429,5.668
			c0.194,3.782,0.251,7.55,0.464,11.313l0.294,5.646C250.521,471.043,250.965,472.98,250.357,474.811z M250.357,474.811
			c0.504-1.852-0.04-3.73-0.17-5.602l-0.602-5.632c-0.401-3.755-0.637-7.526-1.012-11.265l-0.695-5.589
			c-0.237-1.86-0.428-3.721-0.789-5.579l-0.964-5.574c-0.174-0.911-0.292-1.897-0.512-2.748l-0.631-2.73l-1.246-5.455
			c-0.445-1.813-1.024-3.625-1.53-5.438l-0.784-2.718l-0.392-1.359l-0.098-0.34c-0.012-0.038-0.043-0.153-0.038-0.129l-0.058-0.165
			l-0.232-0.659l-1.852-5.271l-0.923-2.632c-0.312-0.877-0.705-1.745-1.053-2.618l-2.153-5.231l-0.538-1.31
			c-0.139-0.353-0.379-0.824-0.563-1.229l-1.186-2.529l-2.367-5.053c-6.725-13.454-14.463-26.161-23.242-38.341l-1.649-2.299
			l-0.412-0.573l-0.177-0.244l-0.213-0.274l-0.851-1.102l-3.401-4.402c-1.103-1.473-2.329-2.919-3.532-4.371l-3.611-4.354
			l-7.51-8.269l-3.806-4.187l-0.951-1.047l-0.412-0.449l-0.482-0.505l-1.928-2.021l-3.852-4.039l-4.007-3.992l-2.004-1.996
			l-0.501-0.498l-0.439-0.396l-1.031-0.92l-4.12-3.676c-5.649-4.739-11.554-9.189-17.674-13.406
			c-12.28-8.395-25.309-15.978-37.982-24.613c-6.34-4.301-12.535-8.963-18.438-14.022l-4.372-3.875
			c-1.431-1.366-2.846-2.777-4.267-4.168c-0.691-0.697-1.46-1.399-2.087-2.095l-1.909-2.087l-1.909-2.087l-0.954-1.043l-0.339-0.38
			l-0.232-0.28l-0.464-0.561c-5.054-5.896-9.664-12.182-13.969-18.683c-4.236-6.555-7.981-13.435-11.326-20.523l-2.352-5.518
			c-0.373-0.912-0.819-1.864-1.129-2.744l-0.966-2.658l-0.966-2.659l-0.483-1.329l-0.173-0.491l-0.107-0.354l-0.215-0.709
			l-1.706-5.677c-2.058-7.619-3.449-15.367-4.331-23.166c-0.918-7.798-1.126-15.664-0.818-23.519
			c0.313-7.854,1.128-15.721,2.769-23.49c1.608-7.773,3.864-15.452,7.026-22.914l2.699-5.709l0.342-0.704l0.349-0.615l0.698-1.23
			l1.399-2.458c2.219-3.846,4.713-7.1,7.382-10.237c5.379-6.153,11.321-11.489,17.619-16.311c3.14-2.424,6.4-4.68,9.747-6.828
			c1.67-1.086,3.374-2.095,5.118-3.12l2.715-1.518l2.516-1.314c14.925-7.529,31.378-10.206,47.374-9.774
			c8.012,0.215,15.945,1.198,23.72,2.794l5.802,1.313l5.737,1.544l5.667,1.77c1.896,0.629,3.809,1.349,5.711,2.025
			c0.988,0.34,1.809,0.699,2.696,1.051l2.623,1.059l0.655,0.266l0.328,0.133c0.024,0.008,0.367,0.153,0.305,0.131l0.175,0.082
			l1.401,0.655l2.799,1.315c1.852,0.902,3.619,1.956,5.428,2.935c1.753,1.066,3.474,2.183,5.197,3.293
			c1.648,1.207,3.334,2.371,4.943,3.625c1.562,1.303,3.196,2.536,4.691,3.907l2.249,2.052l1.123,1.029l1.101,1.113
			c1.443,1.474,3.02,3.018,4.185,4.385l1.884,2.109l0.235,0.264l0.118,0.132c0.277,0.317,0.147,0.177,0.24,0.288l0.488,0.622
			l0.974,1.246l1.938,2.497l1.713,2.519c0.561,0.839,1.15,1.684,1.685,2.52l1.545,2.498c1.054,1.682,2.014,3.301,2.983,4.925
			c3.856,6.447,7.548,12.546,11.91,16.926l-12.656,3.977c1.612-8.669,5.067-16.326,8.458-23.291
			c1.866-3.811,4.106-7.544,6.693-10.969c2.612-3.461,5.424-6.543,8.803-9.583c6.144-5.302,12.94-9.948,19.999-13.836
			c7.076-3.901,14.465-7.132,22.044-9.73c15.16-5.208,31.064-7.891,47.039-8.248c7.99-0.162,16.008,0.292,23.961,1.436
			c7.952,1.129,15.836,3.006,23.484,5.697c7.646,2.683,15.065,6.176,21.988,10.563c6.919,4.381,13.33,9.668,18.894,15.762
			l2.088,2.29l2.002,2.52l1.985,2.53c0.589,0.813,1.083,1.583,1.629,2.376l1.601,2.364l0.2,0.296l0.102,0.147
			c-0.093-0.144,0.236,0.359,0.237,0.371l0.386,0.671l0.767,1.344l1.525,2.692l0.757,1.348l0.656,1.388
			c3.695,7.335,6.284,15.057,8.165,22.857c1.861,7.807,3.1,15.716,3.609,23.646c0.504,7.929,0.464,15.869-0.159,23.766l-0.604,5.911
			c-0.222,1.968-0.563,3.924-0.839,5.885c-0.253,1.964-0.676,3.907-1.054,5.855l-0.575,2.919c-0.213,0.979-0.479,1.973-0.716,2.958
			l-0.735,2.959l-0.375,1.468l-0.413,1.366l-0.828,2.733l-0.413,1.366l-0.207,0.683c-0.112,0.357-0.066,0.199-0.107,0.324
			l-0.063,0.175l-0.127,0.35l-2.027,5.59l-0.508,1.396l-0.575,1.369l-1.163,2.732c-1.47,3.681-3.318,7.18-5.035,10.738
			c-1.932,3.442-3.74,6.957-5.891,10.261c-2.015,3.39-4.293,6.599-6.521,9.838c-1.156,1.605-2.391,3.184-3.582,4.774
			c-0.604,0.783-1.201,1.61-1.808,2.355l-1.819,2.2l-1.819,2.2l-0.91,1.1l-0.188,0.225l-0.125,0.137l-0.25,0.274l-0.499,0.548
			l-4,4.378c-1.337,1.455-2.796,2.784-4.188,4.18l-2.112,2.069l-2.203,1.959c-5.81,5.316-12.085,10.005-18.426,14.46
			c-12.702,8.924-25.937,16.506-38.377,24.945c-1.575,1.032-3.104,2.115-4.632,3.197c-1.521,1.089-3.087,2.132-4.558,3.275
			l-4.475,3.371l-4.279,3.48c-1.432,1.116-2.85,2.421-4.27,3.688l-2.13,1.901l-0.936,0.837l-1.002,1.018l-2.003,2.035l-1.887,1.963
			l-3.968,4.107l-3.972,4.104l-1.985,2.053l-0.993,1.025l-0.911,1c-2.508,2.797-5.068,5.479-7.521,8.428l-3.712,4.341l-3.479,4.343
			c-2.365,2.869-4.606,5.979-6.877,9.032l-0.851,1.147l-0.425,0.572l-0.373,0.536l-1.592,2.316l-3.188,4.636
			c-1.043,1.574-2.048,3.204-3.073,4.805l-1.532,2.409l-0.766,1.205c-0.208,0.325-0.466,0.787-0.697,1.174l-2.849,4.856l-1.429,2.43
			l-1.358,2.512l-2.718,5.023c-0.896,1.596-1.67,3.344-2.514,5.01c-0.82,1.689-1.668,3.361-2.471,5.071l-2.279,5.237l-1.142,2.617
			l-0.284,0.654l-0.07,0.164c0.01-0.024-0.033,0.088-0.047,0.125l-0.125,0.329l-0.496,1.316l-1.99,5.271
			c-0.704,1.735-1.246,3.571-1.823,5.385l-1.726,5.445c-0.492,1.744-0.937,3.624-1.407,5.432l-0.699,2.74
			c-0.239,0.91-0.474,1.826-0.64,2.768l-1.119,5.602l-0.555,2.775l-0.43,2.806l-0.857,5.62c-0.271,1.878-0.424,3.782-0.644,5.672
			c-0.438,3.784-0.743,7.564-1.067,11.365c-0.187,1.894-0.291,3.796-0.547,5.688C250.253,471.023,250.05,472.913,250.357,474.811z"
			/>
	</g>
</g>
<circle display="none" opacity="0.6" fill="none" stroke="#000000" stroke-width="5" stroke-miterlimit="10" enable-background="new    " cx="340.667" cy="254.779" r="37.5"/>
<image display="none" overflow="visible" enable-background="new    " width="1300" height="1300" xlink:href="../36421799-icono-de-la-mano-vector-dando-gesto-.jpg"  transform="matrix(0.24 0 0 0.24 -273.0918 29.7686)">
</image>
<path fill="#FFFFFF" stroke="#FFFFFF" stroke-miterlimit="10" d="M324.313,202.796c0,0,6.875-0.05,9.75-0.807
	c0,0-2.685,2.085-9.75,1.312V202.796z"/>
<g>
	<path fill="#0E0E0D" d="M289.861,201.953c6.75,2.436,13.627,4.571,20.661,6.069c2.04,0.435,4.091,0.815,6.151,1.136
		c3.21,0.5,6.423,1.035,9.643,1.475c-0.481,2.878-0.914,5.77-1.297,8.662c-0.756,5.735-0.308,3.461-0.696,9.23
		c-0.179,2.648-0.324,5.32-0.015,7.965c0.18,1.518-0.52,4.863-0.794,6.123c-0.896,4.104-7.086,7.089-10.284,7.449
		c-6.163,0.694-14.541,0.015-19.379,4.092c-4.164,3.508-3.05,9.621-4.742,14.505c-2.213,6.383-0.077,13.563-0.077,20.419
		c0,0-11.327,4.311-11.327,9.236h20.452l1.832-33.41c0,0,32.203,6.082,39.307-9.236c0.824-5.09,1.61-10.191,2.304-15.299
		c1.217-8.97,2.496-9.948,3.193-18.974c0.448-5.799,0.745-12.245-2.023-17.587c-1.149-2.222-2.842-4.122-4.853-5.643
		c0,0,13.214-9.852,3.775-19.705c0,0-8.177-8.452-17.025,1.709l-3.827,4.07c0,0,5.158,0.076,4.491,4.688c0,0-0.627,3.387-2.83,4.618
		c0,0,0.313,7.082,3.774,7.082c0,0,3.695,0.349,2.758,0.323c-5.982-0.164-37.362-4.542-37.362-4.542"/>
	<path d="M289.333,201.894c-2.095-0.626-4.327-1.364-6.19-2.496c-1.634-0.991-3.336-2.54-3.787-4.441
		c-0.461-1.953,1.18-2.907,2.985-2.696c1.341,0.156,2.554,0.769,3.593,1.591c0.521,0.412,0.977,0.88,1.414,1.373
		c0.19,0.216,0.621,1.043,1.026,0.588c0.382-0.43-0.369-1.168-0.565-1.52c-0.256-0.461-1.015-2.058-0.119-2.375
		c0.355-0.127,0.623,0.317,0.877,0.501c0.643,0.469,1.141,0.868,1.488,1.604c0.344,0.729,0.506,1.518,1.049,2.143
		C290.294,197.99,289.789,199.957,289.333,201.894z"/>
</g>
<g id="HAND">
	<path id="Fingers" fill="#0E0E0D" d="M182.958,190.528l3.851,3.044c0,0,28.823,0.132,37.474,2.859c0,0,4.5,0.764,6.576,1.926
		c0.037,0.021-0.116-1.579-0.133-1.654c-1.93-8.156-10.45-15.875-18.272-18.463c-4.334-1.434-9.367-1.689-13.981-1.976
		c-3.218-0.2-6.523-0.18-9.776,0.137C188.695,176.402,194.21,184.054,182.958,190.528z"/>
	<path id="Hand" fill="#0E0E0D" d="M111.174,99.559c0,0,7.433,9.813,12.382,9.805c0,0,16.261-1.439,33.51,25.167
		c2.074,3.2,3.532,8.936,5.798,12.838c2.547,4.386,5.645,8.324,9.158,11.975c6.04,6.275,14.116,13.872,14.937,23.105
		c0.129,1.452-3.714,4.472-4.662,5.199c-4.034,3.098-6.617,2.589-10.196-0.716c-3.299-3.046-6.382-6.277-9.277-9.713
		c-4.234-5.027-7.778-10.411-11.433-15.854c-1.736-2.585-4.279-4.486-6.563-6.559c-2.895-2.626-6.256-5.213-8.489-8.459
		c-0.517,3.905,3.221,7.669,5.939,9.784c1.646,1.281,3.162,2.043,4.292,3.727c1.417,2.11,2.959,4.129,4.356,6.258
		c5.183,7.902,10.373,14.589,17.269,21.039c2.765,2.586,6.689,7.947,10.662,5.324c1.952,1.398,3.934,2.919,5.943,4.211
		c1.397,0.898,2.392,0.773,4.048,0.713c9.297-0.34,19.092,1.085,28.333,2.04c3.173,0.328,10.326-0.177,11.728,3.581
		c0.756,2.028,0.062,5.193-2.479,5.421c-3.223,0.289-6.433,0.717-9.669,1.036c-8.728,0.86-17.422,2.069-26.176,2.663
		c-1.915,0.129-6.76,1.282-8.529,0.248c-0.018-0.01-33.148-19.393-37.748-22.096c0,0-4.484-3.528-6.728-6.707
		c0,0-36.914-35.257-42.257-46.41C95.324,137.178,100.587,112.068,111.174,99.559z"/>
</g>
<path fill="#FFFFFF" stroke="#131211" stroke-miterlimit="10" d="M206.013,112.366c0.006-0.084,0.012-0.168,0.019-0.253
	c0.101-1.354,0.514-2.751,0.429-4.109c-0.097-1.571-1.111-2.84-2.319-3.766c-0.81-0.62-1.746-1.172-2.735-1.449
	c0.63,1.255,1.022,2.458,0.77,3.875c-0.272,1.531-0.986,2.967-1.592,4.387c-1.12,2.625-1.25,5.998,0.045,8.813
	c0.365,0.793,1.977,6.505,2.276,7.33c0.254,0.701,0.261,1.621,0.886,2.122c0.886,0.711,1.961-1.687,2.266-2.191
	c0.58-0.966-0.08-6.981,0.28-8.048C207.016,117.061,205.856,114.469,206.013,112.366z"/>
<path fill="#FFFFFF" stroke="#131211" stroke-miterlimit="10" d="M217.296,135.649c0,0-1.603-3.277-0.374-5.792
	c0.334-0.685-0.187-2.236-0.447-2.853c-0.798-1.884-2.993-2.057-4.753-1.787c-1.743,0.268-3.703,0.466-5.057,1.716
	c0.086-1.126-0.104-2.223-0.443-3.3c-0.913-2.895-3.857-4.382-5.872-6.411c-1.958-1.973-3.876-4.033-5.138-6.528
	c0,0-6.19-12.109-4.827-15.628c0,0-5.194,7.345-0.208,16.818c-2.268-2.599-4.759-5.953-4.812-9.52
	c-1.031,1.742-1.276,3.906-1.345,5.89c-0.033,0.94-0.026,1.893,0.07,2.829c0.045,0.438,0.984,3.082,0.884,3.244
	c0,0-2.222,3.633,1.192,9.399c0.065,0.11-0.233,0.891-0.257,1.019c-0.154,0.847-0.165,1.691,0.039,2.531
	c0.725,2.98,2.915,4.249,5.605,5.225c1.35,0.49,3.039,1.355,3.611,2.76c0.731,1.798-0.997,3.345-2.542,3.955
	c-3.091,1.222-6.776,0.669-9.98,0.348c-1.538-0.154-3.217-0.136-4.526-1.08c0.985,1.167,2.508,1.821,3.89,2.388
	c1.105,0.453,3.389,1.311,4.57,0.777c-2.213,1-4.621,0.73-6.924,0.246c2.291,1.149,4.898,1.521,7.441,1.187
	c-0.793,0.184-1.381,0.796-2.115,1.115c-0.801,0.348-1.674,0.409-2.534,0.325c1.599,0.83,5.071,1.508,6.412-0.066
	c-0.935,1.098-2.292,2.468-3.783,2.677c1.28,0.204,5.623,0.637,6.396-0.737c-0.585,1.041-1.906,2.223-3.042,2.688
	c1.356,0.046,3.706-0.018,4.827-0.873c-0.986,0.752-3.408,2.553-1.995,3.98c0.553-1.208,1.74-2.286,2.737-3.149
	c3.036-2.624,6.708-3.108,10.375-4.319c2.533-0.836,4.384-2.97,5.422-5.363c0.681-1.568,1.342-2.858,2.295-4.311
	c0.302-0.458,0.948-1.325,1.635-0.999C213.727,134.048,214.302,133.874,217.296,135.649z"/>
<path fill="#C61B1E" d="M286.157,187.671c-2.087-3.773-2.726-5.402-4.946-9.136c-1.165-1.958-2.585-4.31-2.436-6.676
	c0.166-2.614,2.756-4.658,5.428-4.111c3.137,0.642,3.055,1.814,4.208,4.358c0.979-1.573,5.364-3.086,5.498-0.216
	c0.172,3.717-3.929,7.371-5.854,10.131c-0.666,0.952-1.32,2.011-1.638,3.145C286.193,185.975,286.277,186.863,286.157,187.671z"/>
<g id="Clouds" display="none">
	<g display="inline">
		<path fill="#0E0E0D" d="M71.288,123.779c-1.503,0.187-2.999,0.47-4.469,0.841c-1.48,0.356-2.935,0.817-4.354,1.347
			c-1.419,0.525-2.805,1.13-4.118,1.794c-0.651,0.34-1.29,0.692-1.889,1.066c-0.599,0.373-1.156,0.791-1.62,1.222
			c-0.458,0.434-0.859,0.889-1.026,1.33c-0.19,0.431-0.216,0.837-0.08,1.323c0.027,0.189,0.217,0.621,0.325,0.965
			c0.125,0.367,0.253,0.716,0.383,1.053c0.261,0.679,0.521,1.377,0.814,2.021c0.593,1.312,1.254,2.434,2.387,3.038
			c1.158,0.608,2.711,0.827,4.204,1.042l1.197,0.173l-0.867,0.792c-0.477,0.436-0.964,0.963-1.344,1.525
			c-0.383,0.566-0.708,1.168-0.927,1.797c-0.104,0.315-0.173,0.64-0.203,0.962c-0.031,0.322-0.032,0.645,0.024,0.957
			c0.09,0.627,0.376,1.211,0.799,1.696c0.213,0.241,0.438,0.477,0.704,0.675c0.245,0.219,0.544,0.382,0.823,0.561
			c0.304,0.152,0.592,0.322,0.911,0.449c0.316,0.13,0.624,0.272,0.958,0.368c0.649,0.223,1.322,0.396,2.001,0.54
			c0.677,0.153,1.372,0.253,2.06,0.362l-0.141-0.018c0.963-0.024,1.991-0.125,2.98-0.231c0.997-0.112,1.985-0.269,2.963-0.443
			c1.953-0.363,3.861-0.887,5.599-1.671c0.43-0.201,0.852-0.412,1.257-0.643c0.4-0.235,0.803-0.469,1.16-0.746
			c0.375-0.259,0.708-0.558,1.038-0.854l0.461-0.47l0.417-0.498c0.258-0.342,0.521-0.684,0.711-1.064
			c0.224-0.363,0.369-0.767,0.531-1.16c0.125-0.411,0.252-0.82,0.324-1.253c0.117-0.419,0.121-0.874,0.187-1.313l0.177,0.792
			c-0.434-0.861-0.916-1.754-1.398-2.622l-1.455-2.62c-0.98-1.742-1.952-3.493-2.994-5.206c-1.061-1.696-2.183-3.371-3.543-4.84
			c-0.673-0.741-1.434-1.394-2.248-1.965c-0.412-0.279-0.849-0.517-1.305-0.709C72.248,123.951,71.771,123.842,71.288,123.779z
			 M71.299,123.478c0.522,0.054,1.038,0.161,1.522,0.351c0.491,0.173,0.958,0.404,1.407,0.659c0.457,0.246,0.889,0.532,1.313,0.829
			c0.422,0.3,0.824,0.624,1.233,0.941c1.602,1.309,3.096,2.756,4.492,4.287c1.403,1.526,2.712,3.136,3.893,4.829
			c0.58,0.853,1.172,1.699,1.701,2.585c0.538,0.887,1.055,1.759,1.572,2.692l0.213,0.385l-0.036,0.407
			c-0.052,0.587-0.049,1.175-0.177,1.765c-0.081,0.593-0.271,1.169-0.453,1.746c-0.226,0.563-0.448,1.132-0.764,1.653
			c-0.283,0.54-0.65,1.028-1.02,1.503c-0.377,0.474-0.807,0.89-1.249,1.287c-0.452,0.379-0.911,0.75-1.399,1.061
			c-0.477,0.333-0.982,0.604-1.484,0.87c-0.505,0.263-1.022,0.484-1.541,0.694c-1.042,0.405-2.099,0.721-3.16,0.972
			c-1.062,0.255-2.131,0.427-3.199,0.549c-1.067,0.13-2.138,0.182-3.206,0.195c-0.534,0.009-1.067-0.001-1.601-0.026
			c-0.539-0.023-1.056-0.057-1.62-0.113l-0.121-0.012l-0.021-0.006c-0.714-0.207-1.426-0.403-2.128-0.657
			c-0.703-0.243-1.4-0.515-2.078-0.844c-0.342-0.15-0.674-0.337-1.007-0.516c-0.334-0.174-0.649-0.4-0.969-0.604
			c-0.305-0.239-0.618-0.458-0.9-0.731c-0.294-0.252-0.554-0.555-0.795-0.867c-0.476-0.633-0.812-1.401-0.919-2.198
			c-0.062-0.398-0.053-0.801-0.007-1.192c0.04-0.394,0.147-0.769,0.25-1.141c0.232-0.736,0.58-1.418,0.983-2.053
			c0.422-0.63,0.836-1.231,1.384-1.804l0.331,0.964c-0.766-0.053-1.532-0.07-2.324-0.143c-0.787-0.08-1.606-0.178-2.442-0.476
			c-0.836-0.295-1.628-0.833-2.239-1.465c-0.625-0.628-1.112-1.327-1.522-2.027c-0.431-0.702-0.788-1.403-1.115-2.131
			c-0.17-0.365-0.332-0.723-0.478-1.069c-0.152-0.373-0.301-0.63-0.449-1.187c-0.311-0.969-0.267-2.179,0.172-3.146
			c0.441-0.972,1.12-1.659,1.806-2.217c0.687-0.574,1.436-0.964,2.172-1.328c0.736-0.368,1.496-0.636,2.253-0.881
			c1.511-0.499,3.049-0.796,4.574-1.075c1.528-0.267,3.053-0.479,4.57-0.699l4.569-0.613L71.299,123.478z"/>
	</g>
</g>
<path fill="none" stroke="#0E0E0D" stroke-width="5" stroke-miterlimit="10" d="M339.898,292.888
	c1.301-1.636,2.619-3.103,4.438-4.166c2.23-1.304,4.599-2.376,6.631-3.993c1.654-1.316,3.299-2.646,4.951-3.964
	c3.151-2.515,6.169-5.259,9.546-7.477c1.802-1.184,3.788-2.09,5.724-3.069c0.964-3.068,1.485-6.333,1.485-9.719
	c0-17.887-14.496-32.389-32.38-32.399c0.177,3.835,0.008,7.663-0.419,11.524c-0.59,5.334-1.128,12.268-3.905,16.971
	c-6.011,10.182-17.291,9.264-27.556,9.778c2.743,14.968,15.764,26.337,31.48,26.518
	C339.896,292.891,339.897,292.889,339.898,292.888z"/>
</svg>
